<?xml version="1.0" standalone="no"?>
<!DOCTYPE svg PUBLIC "-//W3C//DTD SVG 1.1//EN" "http://www.w3.org/Graphics/SVG/1.1/DTD/svg11.dtd" >
<svg>
<metadata>
Created by FontForge 20090914 at Sun Mar 23 08:13:19 2014
 By www-data
Copyright CaptainFalcon 2012
Mecha Bold is based on Mecha by CaptainFalcon (http://fontstruct.com/fontstructors/captainfalcon)
</metadata>
<defs>
<font id="Mecha-Bold" horiz-adv-x="448" >
  <font-face 
    font-family="Mecha"
    font-weight="700"
    font-stretch="normal"
    units-per-em="1024"
    panose-1="0 0 4 0 0 0 0 0 0 0"
    ascent="819"
    descent="-205"
    x-height="576"
    cap-height="768"
    bbox="0 -128 1024 960"
    underline-thickness="51"
    underline-position="126"
    unicode-range="U+0020-U+2265"
  />
<missing-glyph horiz-adv-x="192" 
 />
    <glyph glyph-name=".notdef" horiz-adv-x="192" 
 />
    <glyph glyph-name="space" unicode=" " horiz-adv-x="192" 
 />
    <glyph glyph-name="exclam" unicode="!" horiz-adv-x="192" 
d="M64 0v128h128v-128h-128zM64 192v576h128v-576h-128z" />
    <glyph glyph-name="quotedbl" unicode="&#x22;" horiz-adv-x="384" 
d="M64 512v256h128v-256h-128zM256 512v256h128v-256h-128z" />
    <glyph glyph-name="numbersign" unicode="#" horiz-adv-x="512" 
d="M320 256v192h-64v-192h64zM128 0v128h-64v128h64v192h-64v128h64v192h128v-192h64v192h128v-192h64v-128h-64v-192h64v-128h-64v-128h-128v128h-64v-128h-128z" />
    <glyph glyph-name="dollar" unicode="$" 
d="M192 0v64h-128v128h256v128h-256v384h128v64h128v-64h128v-128h-256v-128h256v-384h-128v-64h-128z" />
    <glyph glyph-name="percent" unicode="%" 
d="M256 0v192h192v-192h-192zM64 64v128h64v128h64v128h64v128h64v128h128v-128h-64v-128h-64v-128h-64v-128h-64v-128h-128zM64 576v192h192v-192h-192z" />
    <glyph glyph-name="ampersand" unicode="&#x26;" 
d="M320 128v192h-128v-192h128zM64 0v320h64v128h-64v320h384v-128h-256v-192h128v64h128v-512h-384z" />
    <glyph glyph-name="quotesingle" unicode="'" horiz-adv-x="192" 
d="M64 576v192h128v-192h-128z" />
    <glyph glyph-name="parenleft" unicode="(" horiz-adv-x="256" 
d="M128 -128v64h-64v832h64v64h128v-128h-64v-704h64v-128h-128z" />
    <glyph glyph-name="parenright" unicode=")" horiz-adv-x="256" 
d="M64 -128v128h64v704h-64v128h128v-64h64v-832h-64v-64h-128z" />
    <glyph glyph-name="asterisk" unicode="*" horiz-adv-x="384" 
d="M64 448v128h64v64h-64v128h128v-64h64v64h128v-128h-64v-64h64v-128h-128v64h-64v-64h-128z" />
    <glyph glyph-name="plus" unicode="+" 
d="M192 128v128h-128v128h128v128h128v-128h128v-128h-128v-128h-128z" />
    <glyph glyph-name="comma" unicode="," horiz-adv-x="192" 
d="M64 -128v256h128v-256h-128z" />
    <glyph glyph-name="hyphen" unicode="-" 
d="M64 256v128h384v-128h-384z" />
    <glyph glyph-name="period" unicode="." horiz-adv-x="192" 
d="M64 0v128h128v-128h-128z" />
    <glyph glyph-name="slash" unicode="/" horiz-adv-x="512" 
d="M64 0v128h64v128h64v128h64v128h64v128h64v128h128v-128h-64v-128h-64v-128h-64v-128h-64v-128h-64v-128h-128z" />
    <glyph glyph-name="zero" unicode="0" 
d="M320 128v128h-64v64h-64v-192h128zM320 384v256h-128v-192h64v-64h64zM64 0v768h384v-768h-384z" />
    <glyph glyph-name="one" unicode="1" horiz-adv-x="256" 
d="M128 0v640h-64v128h192v-768h-128z" />
    <glyph glyph-name="two" unicode="2" 
d="M64 0v384h64v64h192v192h-256v128h384v-448h-256v-192h256v-128h-384z" />
    <glyph glyph-name="three" unicode="3" 
d="M64 0v128h256v192h-128v128h128v192h-256v128h384v-768h-384z" />
    <glyph glyph-name="four" unicode="4" 
d="M320 0v320h-256v448h128v-320h128v320h128v-768h-128z" />
    <glyph glyph-name="five" unicode="5" 
d="M64 0v128h256v192h-256v448h384v-128h-256v-192h192v-64h64v-384h-384z" />
    <glyph glyph-name="six" unicode="6" 
d="M320 128v192h-128v-192h128zM64 0v768h384v-128h-256v-192h256v-448h-384z" />
    <glyph glyph-name="seven" unicode="7" 
d="M192 0v384h64v64h64v192h-256v128h384v-384h-64v-64h-64v-320h-128z" />
    <glyph glyph-name="eight" unicode="8" 
d="M320 128v192h-128v-192h128zM320 448v192h-128v-192h128zM64 0v768h384v-768h-384z" />
    <glyph glyph-name="nine" unicode="9" 
d="M320 448v192h-128v-192h128zM64 0v128h256v192h-256v448h384v-768h-384z" />
    <glyph glyph-name="colon" unicode=":" horiz-adv-x="192" 
d="M64 0v128h128v-128h-128zM64 448v128h128v-128h-128z" />
    <glyph glyph-name="semicolon" unicode=";" horiz-adv-x="192" 
d="M64 -128v256h128v-256h-128zM64 448v128h128v-128h-128z" />
    <glyph glyph-name="less" unicode="&#x3c;" horiz-adv-x="384" 
d="M192 128v64h-64v64h-64v128h64v64h64v64h192v-128h-128v-128h128v-128h-192z" />
    <glyph glyph-name="equal" unicode="=" horiz-adv-x="384" 
d="M64 128v128h320v-128h-320zM64 320v128h320v-128h-320z" />
    <glyph glyph-name="greater" unicode="&#x3e;" horiz-adv-x="384" 
d="M64 128v128h128v128h-128v128h192v-64h64v-64h64v-128h-64v-64h-64v-64h-192z" />
    <glyph glyph-name="question" unicode="?" 
d="M192 0v128h128v-128h-128zM192 192v192h64v64h64v192h-128v-64h-128v192h384v-384h-64v-64h-64v-128h-128z" />
    <glyph glyph-name="at" unicode="@" horiz-adv-x="1024" 
d="M640 128v128h-128v-128h128zM128 0v768h896v-768h-640v384h256v64h-256v128h384v-448h128v512h-640v-640h-128z" />
    <glyph glyph-name="A" unicode="A" 
d="M320 448v192h-128v-192h128zM64 0v768h384v-768h-128v320h-128v-320h-128z" />
    <glyph glyph-name="B" unicode="B" 
d="M320 128v192h-128v-192h128zM320 448v192h-128v-192h128zM64 0v768h384v-320h-64v-128h64v-320h-384z" />
    <glyph glyph-name="C" unicode="C" 
d="M64 0v768h384v-128h-256v-512h256v-128h-384z" />
    <glyph glyph-name="D" unicode="D" 
d="M320 128v512h-128v-512h128zM64 0v768h320v-64h64v-640h-64v-64h-320z" />
    <glyph glyph-name="E" unicode="E" 
d="M64 0v768h384v-128h-256v-192h192v-128h-192v-192h256v-128h-384z" />
    <glyph glyph-name="F" unicode="F" 
d="M64 0v768h384v-128h-256v-192h192v-128h-192v-320h-128z" />
    <glyph glyph-name="G" unicode="G" 
d="M64 0v768h384v-128h-256v-512h128v192h-64v128h192v-448h-384z" />
    <glyph glyph-name="H" unicode="H" 
d="M64 0v768h128v-320h128v320h128v-768h-128v320h-128v-320h-128z" />
    <glyph glyph-name="I" unicode="I" horiz-adv-x="192" 
d="M64 0v768h128v-768h-128z" />
    <glyph glyph-name="J" unicode="J" 
d="M64 0v128h256v512h-128v128h256v-768h-384z" />
    <glyph glyph-name="K" unicode="K" 
d="M64 0v768h128v-320h128v320h128v-320h-64v-128h64v-320h-128v320h-128v-320h-128z" />
    <glyph glyph-name="L" unicode="L" 
d="M64 0v768h128v-640h256v-128h-384z" />
    <glyph glyph-name="M" unicode="M" horiz-adv-x="576" 
d="M64 0v768h512v-768h-128v640h-64v-256h-128v256h-64v-640h-128z" />
    <glyph glyph-name="N" unicode="N" 
d="M64 0v768h384v-768h-128v640h-128v-640h-128z" />
    <glyph glyph-name="O" unicode="O" 
d="M320 128v512h-128v-512h128zM64 0v768h384v-768h-384z" />
    <glyph glyph-name="P" unicode="P" 
d="M320 448v192h-128v-192h128zM64 0v768h384v-448h-256v-320h-128z" />
    <glyph glyph-name="Q" unicode="Q" 
d="M192 -128v64h128v-64h-128zM320 128v512h-128v-512h128zM64 0v768h384v-768h-384z" />
    <glyph glyph-name="R" unicode="R" 
d="M320 448v192h-128v-192h128zM64 0v768h384v-320h-64v-128h64v-320h-128v320h-128v-320h-128z" />
    <glyph glyph-name="S" unicode="S" 
d="M64 0v128h256v192h-256v448h384v-128h-256v-192h256v-448h-384z" />
    <glyph glyph-name="T" unicode="T" 
d="M192 0v640h-128v128h384v-128h-128v-640h-128z" />
    <glyph glyph-name="U" unicode="U" 
d="M64 0v768h128v-640h128v640h128v-768h-384z" />
    <glyph glyph-name="V" unicode="V" 
d="M256 0v64h-64v64h-64v64h-64v576h128v-512h64v-64h64v576h128v-768h-192z" />
    <glyph glyph-name="W" unicode="W" horiz-adv-x="576" 
d="M64 0v768h128v-640h64v256h128v-256h64v640h128v-768h-512z" />
    <glyph glyph-name="X" unicode="X" 
d="M64 0v320h64v128h-64v320h128v-256h128v256h128v-320h-64v-128h64v-320h-128v256h-128v-256h-128z" />
    <glyph glyph-name="Y" unicode="Y" 
d="M192 0v320h-64v64h-64v384h128v-320h128v320h128v-384h-64v-64h-64v-320h-128z" />
    <glyph glyph-name="Z" unicode="Z" 
d="M64 0v320h64v64h64v64h64v64h64v128h-256v128h384v-320h-64v-64h-64v-64h-64v-64h-64v-128h256v-128h-384z" />
    <glyph glyph-name="bracketleft" unicode="[" horiz-adv-x="256" 
d="M64 -64v896h192v-128h-64v-640h64v-128h-192z" />
    <glyph glyph-name="backslash" unicode="\" horiz-adv-x="512" 
d="M384 0v128h-64v128h-64v128h-64v128h-64v128h-64v128h128v-128h64v-128h64v-128h64v-128h64v-128h64v-128h-128z" />
    <glyph glyph-name="bracketright" unicode="]" horiz-adv-x="256" 
d="M64 -64v128h64v640h-64v128h192v-896h-192z" />
    <glyph glyph-name="asciicircum" unicode="^" 
d="M64 448v192h64v64h64v64h128v-64h64v-64h64v-192h-128v128h-128v-128h-128z" />
    <glyph glyph-name="underscore" unicode="_" 
d="M64 -128v128h384v-128h-384z" />
    <glyph glyph-name="grave" unicode="`" horiz-adv-x="256" 
d="M128 832v64h-64v64h128v-64h64v-64h-128z" />
    <glyph glyph-name="a" unicode="a" 
d="M320 128v128h-128v-128h128zM64 0v384h256v64h-256v128h384v-576h-384z" />
    <glyph glyph-name="b" unicode="b" 
d="M320 128v320h-128v-320h128zM64 0v768h128v-192h256v-576h-384z" />
    <glyph glyph-name="c" unicode="c" 
d="M64 0v576h384v-128h-256v-320h256v-128h-384z" />
    <glyph glyph-name="d" unicode="d" 
d="M320 128v320h-128v-320h128zM64 0v576h256v192h128v-768h-384z" />
    <glyph glyph-name="e" unicode="e" 
d="M320 320v128h-128v-128h128zM64 0v576h384v-384h-256v-64h256v-128h-384z" />
    <glyph glyph-name="f" unicode="f" horiz-adv-x="384" 
d="M64 0v768h320v-128h-192v-64h192v-128h-192v-448h-128z" />
    <glyph glyph-name="g" unicode="g" 
d="M320 192v256h-128v-256h128zM64 -128v128h256v64h-256v512h384v-704h-384z" />
    <glyph glyph-name="h" unicode="h" 
d="M64 0v768h128v-192h256v-576h-128v448h-128v-448h-128z" />
    <glyph glyph-name="i" unicode="i" horiz-adv-x="192" 
d="M64 0v576h128v-576h-128zM64 640v128h128v-128h-128z" />
    <glyph glyph-name="j" unicode="j" horiz-adv-x="192" 
d="M64 -128v704h128v-704h-128zM64 640v128h128v-128h-128z" />
    <glyph glyph-name="k" unicode="k" 
d="M64 0v768h128v-384h128v192h128v-192h-64v-128h64v-256h-128v256h-128v-256h-128z" />
    <glyph glyph-name="l" unicode="l" horiz-adv-x="192" 
d="M64 0v768h128v-768h-128z" />
    <glyph glyph-name="m" unicode="m" horiz-adv-x="576" 
d="M64 0v576h512v-576h-128v448h-64v-448h-128v448h-64v-448h-128z" />
    <glyph glyph-name="n" unicode="n" 
d="M64 0v576h384v-576h-128v448h-128v-448h-128z" />
    <glyph glyph-name="o" unicode="o" 
d="M320 128v320h-128v-320h128zM64 0v576h384v-576h-384z" />
    <glyph glyph-name="p" unicode="p" 
d="M320 128v320h-128v-320h128zM64 -128v704h384v-576h-256v-128h-128z" />
    <glyph glyph-name="q" unicode="q" 
d="M320 128v320h-128v-320h128zM320 -128v128h-256v576h384v-704h-128z" />
    <glyph glyph-name="r" unicode="r" horiz-adv-x="384" 
d="M64 0v576h320v-128h-192v-448h-128z" />
    <glyph glyph-name="s" unicode="s" 
d="M64 0v128h256v128h-256v320h384v-128h-256v-64h256v-384h-384z" />
    <glyph glyph-name="t" unicode="t" horiz-adv-x="320" 
d="M64 0v768h128v-192h128v-128h-128v-320h128v-128h-256z" />
    <glyph glyph-name="u" unicode="u" 
d="M64 0v576h128v-448h128v448h128v-576h-384z" />
    <glyph glyph-name="v" unicode="v" 
d="M256 0v64h-64v64h-64v64h-64v384h128v-320h64v-64h64v384h128v-576h-192z" />
    <glyph glyph-name="w" unicode="w" horiz-adv-x="576" 
d="M64 0v576h128v-448h64v448h128v-448h64v448h128v-576h-512z" />
    <glyph glyph-name="x" unicode="x" 
d="M64 0v256h64v128h-64v192h128v-128h128v128h128v-192h-64v-128h64v-256h-128v192h-128v-192h-128z" />
    <glyph glyph-name="y" unicode="y" 
d="M64 -128v128h256v64h-256v512h128v-384h128v384h128v-704h-384z" />
    <glyph glyph-name="z" unicode="z" 
d="M64 0v256h64v64h64v64h64v64h-192v128h384v-192h-64v-64h-64v-64h-64v-64h-64v-64h256v-128h-384z" />
    <glyph glyph-name="braceleft" unicode="{" horiz-adv-x="320" 
d="M128 -64v384h-64v128h64v384h192v-128h-64v-640h64v-128h-192z" />
    <glyph glyph-name="bar" unicode="|" horiz-adv-x="192" 
d="M64 -128v1024h128v-1024h-128z" />
    <glyph glyph-name="braceright" unicode="}" horiz-adv-x="320" 
d="M64 -64v128h64v640h-64v128h192v-384h64v-128h-64v-384h-192z" />
    <glyph glyph-name="asciitilde" unicode="~" 
d="M64 192v192h256v64h128v-192h-256v-64h-128z" />
    <glyph glyph-name="exclamdown" unicode="&#xa1;" horiz-adv-x="192" 
d="M64 0v576h128v-576h-128zM64 640v128h128v-128h-128z" />
    <glyph glyph-name="cent" unicode="&#xa2;" 
d="M192 0v64h-128v576h128v64h128v-64h128v-128h-256v-320h256v-128h-128v-64h-128z" />
    <glyph glyph-name="sterling" unicode="&#xa3;" 
d="M64 64v704h320v-192h-128v64h-64v-192h128v-128h-128v-128h128v64h128v-192h-384z" />
    <glyph glyph-name="currency" unicode="&#xa4;" 
d="M320 320v128h-128v-128h128zM64 192v128h64v128h-64v128h128v-64h128v64h128v-128h-64v-128h64v-128h-128v64h-128v-64h-128z" />
    <glyph glyph-name="yen" unicode="&#xa5;" 
d="M192 64v64h-128v64h128v64h-128v64h128v64h-64v64h-64v320h128v-256h128v256h128v-320h-64v-64h-64v-64h128v-64h-128v-64h128v-64h-128v-64h-128z" />
    <glyph glyph-name="brokenbar" unicode="&#xa6;" horiz-adv-x="192" 
d="M64 -128v448h128v-448h-128zM64 448v448h128v-448h-128z" />
    <glyph glyph-name="dieresis" unicode="&#xa8;" horiz-adv-x="320" 
d="M64 768v64h64v-64h-64zM256 768v64h64v-64h-64z" />
    <glyph glyph-name="copyright" unicode="&#xa9;" horiz-adv-x="512" 
d="M192 320v256h192v-64h-128v-128h128v-64h-192zM448 256v384h-320v-384h320zM64 192v512h448v-512h-448z" />
    <glyph glyph-name="logicalnot" unicode="&#xac;" 
d="M320 192v128h-256v128h384v-256h-128z" />
    <glyph glyph-name="registered" unicode="&#xae;" horiz-adv-x="512" 
d="M320 320v64h64v-64h-64zM192 320v256h192v-128h-64v64h-64v-64h64v-64h-64v-64h-64zM448 256v384h-320v-384h320zM64 192v512h448v-512h-448z" />
    <glyph glyph-name="macron" unicode="&#xaf;" 
d="M64 768v128h384v-128h-384z" />
    <glyph glyph-name="degree" unicode="&#xb0;" horiz-adv-x="320" 
d="M256 768v128h-128v-128h128zM64 704v256h256v-256h-256z" />
    <glyph glyph-name="plusminus" unicode="&#xb1;" 
d="M64 0v64h384v-64h-384zM192 128v128h-128v128h128v128h128v-128h128v-128h-128v-128h-128z" />
    <glyph glyph-name="acute" unicode="&#xb4;" horiz-adv-x="256" 
d="M64 768v64h64v64h128v-64h-64v-64h-128z" />
    <glyph glyph-name="mu" unicode="&#xb5;" 
d="M64 -128v704h128v-448h128v448h128v-576h-256v-128h-128z" />
    <glyph glyph-name="paragraph" unicode="&#xb6;" horiz-adv-x="512" 
d="M320 0v320h-192v64h-64v256h64v64h384v-704h-64v576h-64v-576h-64z" />
    <glyph glyph-name="periodcentered" unicode="&#xb7;" horiz-adv-x="192" 
d="M64 320v128h128v-128h-128z" />
    <glyph glyph-name="cedilla" unicode="&#xb8;" horiz-adv-x="320" 
d="M128 -128v64h64v64h128v-128h-192z" />
    <glyph glyph-name="questiondown" unicode="&#xbf;" 
d="M64 0v384h64v64h64v128h128v-192h-64v-64h-64v-192h128v64h128v-192h-384zM192 640v128h128v-128h-128z" />
    <glyph glyph-name="Agrave" unicode="&#xc0;" 
d="M320 448v192h-128v-192h128zM64 0v768h384v-768h-128v320h-128v-320h-128zM192 832v64h-64v64h128v-64h64v-64h-128z" />
    <glyph glyph-name="Aacute" unicode="&#xc1;" 
d="M320 448v192h-128v-192h128zM64 0v768h384v-768h-128v320h-128v-320h-128zM192 832v64h64v64h128v-64h-64v-64h-128z" />
    <glyph glyph-name="Acircumflex" unicode="&#xc2;" 
d="M320 448v192h-128v-192h128zM64 0v768h384v-768h-128v320h-128v-320h-128zM128 832v64h64v-64h-64zM320 832v64h64v-64h-64zM192 896v64h128v-64h-128z" />
    <glyph glyph-name="Atilde" unicode="&#xc3;" 
d="M320 448v192h-128v-192h128zM64 0v768h64v128h192v64h64v-128h-192v-64h256v-768h-128v320h-128v-320h-128z" />
    <glyph glyph-name="Adieresis" unicode="&#xc4;" 
d="M320 448v192h-128v-192h128zM64 0v768h384v-768h-128v320h-128v-320h-128zM128 832v64h64v-64h-64zM320 832v64h64v-64h-64z" />
    <glyph glyph-name="Aring" unicode="&#xc5;" 
d="M320 448v192h-128v-192h128zM320 768v64h-128v-64h128zM64 0v768h64v128h256v-128h64v-768h-128v320h-128v-320h-128z" />
    <glyph glyph-name="AE" unicode="&#xc6;" horiz-adv-x="704" 
d="M320 448v192h-128v-192h128zM64 0v768h640v-128h-256v-192h192v-128h-192v-192h256v-128h-384v320h-128v-320h-128z" />
    <glyph glyph-name="Ccedilla" unicode="&#xc7;" 
d="M128 -128v64h64v64h-128v768h384v-128h-256v-512h256v-128h-128v-128h-192z" />
    <glyph glyph-name="Egrave" unicode="&#xc8;" 
d="M64 0v768h384v-128h-256v-192h192v-128h-192v-192h256v-128h-384zM192 832v64h-64v64h128v-64h64v-64h-128z" />
    <glyph glyph-name="Eacute" unicode="&#xc9;" 
d="M64 0v768h384v-128h-256v-192h192v-128h-192v-192h256v-128h-384zM192 832v64h64v64h128v-64h-64v-64h-128z" />
    <glyph glyph-name="Ecircumflex" unicode="&#xca;" 
d="M64 0v768h384v-128h-256v-192h192v-128h-192v-192h256v-128h-384zM128 832v64h64v-64h-64zM320 832v64h64v-64h-64zM192 896v64h128v-64h-128z" />
    <glyph glyph-name="Edieresis" unicode="&#xcb;" 
d="M64 0v768h384v-128h-256v-192h192v-128h-192v-192h256v-128h-384zM128 832v64h64v-64h-64zM320 832v64h64v-64h-64z" />
    <glyph glyph-name="Igrave" unicode="&#xcc;" horiz-adv-x="192" 
d="M64 0v768h128v-768h-128zM64 832v64h-64v64h128v-64h64v-64h-128z" />
    <glyph glyph-name="Iacute" unicode="&#xcd;" horiz-adv-x="192" 
d="M64 0v768h128v-768h-128zM64 832v64h64v64h128v-64h-64v-64h-128z" />
    <glyph glyph-name="Icircumflex" unicode="&#xce;" horiz-adv-x="192" 
d="M64 0v768h128v-768h-128zM0 832v64h64v-64h-64zM192 832v64h64v-64h-64zM64 896v64h128v-64h-128z" />
    <glyph glyph-name="Idieresis" unicode="&#xcf;" horiz-adv-x="192" 
d="M64 0v768h128v-768h-128zM0 832v64h64v-64h-64zM192 832v64h64v-64h-64z" />
    <glyph glyph-name="Eth" unicode="&#xd0;" 
d="M320 128v512h-128v-192h64v-128h-64v-192h128zM64 0v768h320v-64h64v-640h-64v-64h-320z" />
    <glyph glyph-name="Ntilde" unicode="&#xd1;" 
d="M64 0v768h64v128h192v64h64v-128h-192v-64h256v-768h-128v640h-128v-640h-128z" />
    <glyph glyph-name="Ograve" unicode="&#xd2;" 
d="M320 128v512h-128v-512h128zM64 0v768h384v-768h-384zM192 832v64h-64v64h128v-64h64v-64h-128z" />
    <glyph glyph-name="Oacute" unicode="&#xd3;" 
d="M320 128v512h-128v-512h128zM64 0v768h384v-768h-384zM192 832v64h64v64h128v-64h-64v-64h-128z" />
    <glyph glyph-name="Ocircumflex" unicode="&#xd4;" 
d="M320 128v512h-128v-512h128zM64 0v768h384v-768h-384zM128 832v64h64v-64h-64zM320 832v64h64v-64h-64zM192 896v64h128v-64h-128z" />
    <glyph glyph-name="Otilde" unicode="&#xd5;" 
d="M320 128v512h-128v-512h128zM64 0v768h64v128h192v64h64v-128h-192v-64h256v-768h-384z" />
    <glyph glyph-name="Odieresis" unicode="&#xd6;" 
d="M320 128v512h-128v-512h128zM64 0v768h384v-768h-384zM128 832v64h64v-64h-64zM320 832v64h64v-64h-64z" />
    <glyph glyph-name="multiply" unicode="&#xd7;" horiz-adv-x="384" 
d="M64 128v128h64v64h-64v128h128v-64h64v64h128v-128h-64v-64h64v-128h-128v64h-64v-64h-128z" />
    <glyph glyph-name="Oslash" unicode="&#xd8;" 
d="M320 128v256h-64v192h64v64h-128v-256h64v-192h-64v-64h128zM64 -64v832h320v64h64v-832h-320v-64h-64z" />
    <glyph glyph-name="Ugrave" unicode="&#xd9;" 
d="M64 0v768h128v-640h128v640h128v-768h-384zM192 832v64h-64v64h128v-64h64v-64h-128z" />
    <glyph glyph-name="Uacute" unicode="&#xda;" 
d="M64 0v768h128v-640h128v640h128v-768h-384zM192 832v64h64v64h128v-64h-64v-64h-128z" />
    <glyph glyph-name="Ucircumflex" unicode="&#xdb;" 
d="M64 0v768h128v-640h128v640h128v-768h-384zM128 832v64h64v-64h-64zM320 832v64h64v-64h-64zM192 896v64h128v-64h-128z" />
    <glyph glyph-name="Udieresis" unicode="&#xdc;" 
d="M64 0v768h128v-640h128v640h128v-768h-384zM128 832v64h64v-64h-64zM320 832v64h64v-64h-64z" />
    <glyph glyph-name="Yacute" unicode="&#xdd;" 
d="M192 0v320h-64v64h-64v384h128v-320h128v320h128v-384h-64v-64h-64v-320h-128zM192 832v64h64v64h128v-64h-64v-64h-128z" />
    <glyph glyph-name="Thorn" unicode="&#xde;" 
d="M320 256v256h-128v-256h128zM64 0v768h128v-128h192v-64h64v-384h-64v-64h-192v-128h-128z" />
    <glyph glyph-name="germandbls" unicode="&#xdf;" 
d="M256 448v192h-64v-192h64zM64 0v768h320v-320h64v-448h-192v128h64v192h-128v-320h-128z" />
    <glyph glyph-name="agrave" unicode="&#xe0;" 
d="M320 128v128h-128v-128h128zM64 0v384h256v64h-256v128h384v-576h-384zM192 640v64h-64v64h128v-64h64v-64h-128z" />
    <glyph glyph-name="aacute" unicode="&#xe1;" 
d="M320 128v128h-128v-128h128zM64 0v384h256v64h-256v128h384v-576h-384zM192 640v64h64v64h128v-64h-64v-64h-128z" />
    <glyph glyph-name="acircumflex" unicode="&#xe2;" 
d="M320 128v128h-128v-128h128zM64 0v384h256v64h-256v128h384v-576h-384zM128 640v64h64v-64h-64zM320 640v64h64v-64h-64zM192 704v64h128v-64h-128z" />
    <glyph glyph-name="atilde" unicode="&#xe3;" 
d="M320 128v128h-128v-128h128zM64 0v384h256v64h-256v128h64v128h192v64h64v-128h-192v-64h256v-576h-384z" />
    <glyph glyph-name="adieresis" unicode="&#xe4;" 
d="M320 128v128h-128v-128h128zM64 0v384h256v64h-256v128h384v-576h-384zM128 640v64h64v-64h-64zM320 640v64h64v-64h-64z" />
    <glyph glyph-name="aring" unicode="&#xe5;" 
d="M320 128v128h-128v-128h128zM320 576v64h-128v-64h128zM64 0v384h256v64h-256v128h64v128h256v-128h64v-576h-384z" />
    <glyph glyph-name="ae" unicode="&#xe6;" horiz-adv-x="704" 
d="M320 128v128h-128v-128h128zM576 320v128h-128v-128h128zM64 0v384h256v64h-256v128h640v-384h-256v-64h256v-128h-640z" />
    <glyph glyph-name="ccedilla" unicode="&#xe7;" 
d="M128 -128v64h64v64h-128v576h384v-128h-256v-320h256v-128h-128v-128h-192z" />
    <glyph glyph-name="egrave" unicode="&#xe8;" 
d="M320 320v128h-128v-128h128zM64 0v576h384v-384h-256v-64h256v-128h-384zM192 640v64h-64v64h128v-64h64v-64h-128z" />
    <glyph glyph-name="eacute" unicode="&#xe9;" 
d="M320 320v128h-128v-128h128zM64 0v576h384v-384h-256v-64h256v-128h-384zM192 640v64h64v64h128v-64h-64v-64h-128z" />
    <glyph glyph-name="ecircumflex" unicode="&#xea;" 
d="M320 320v128h-128v-128h128zM64 0v576h384v-384h-256v-64h256v-128h-384zM128 640v64h64v-64h-64zM320 640v64h64v-64h-64zM192 704v64h128v-64h-128z" />
    <glyph glyph-name="edieresis" unicode="&#xeb;" 
d="M320 320v128h-128v-128h128zM64 0v576h384v-384h-256v-64h256v-128h-384zM128 640v64h64v-64h-64zM320 640v64h64v-64h-64z" />
    <glyph glyph-name="igrave" unicode="&#xec;" horiz-adv-x="192" 
d="M64 0v576h128v-576h-128zM64 640v64h-64v64h128v-64h64v-64h-128z" />
    <glyph glyph-name="iacute" unicode="&#xed;" horiz-adv-x="192" 
d="M64 0v576h128v-576h-128zM64 640v64h64v64h128v-64h-64v-64h-128z" />
    <glyph glyph-name="icircumflex" unicode="&#xee;" horiz-adv-x="192" 
d="M64 0v576h128v-576h-128zM0 640v64h64v-64h-64zM192 640v64h64v-64h-64zM64 704v64h128v-64h-128z" />
    <glyph glyph-name="idieresis" unicode="&#xef;" horiz-adv-x="192" 
d="M64 0v576h128v-576h-128zM0 640v64h64v-64h-64zM192 640v64h64v-64h-64z" />
    <glyph glyph-name="eth" unicode="&#xf0;" 
d="M320 128v320h-128v-320h128zM384 576v64h-64v-64h64zM64 0v576h192v64h-64v64h64v64h64v-64h128v-704h-384z" />
    <glyph glyph-name="ntilde" unicode="&#xf1;" 
d="M64 0v576h64v128h192v64h64v-128h-192v-64h256v-576h-128v448h-128v-448h-128z" />
    <glyph glyph-name="ograve" unicode="&#xf2;" 
d="M320 128v320h-128v-320h128zM64 0v576h384v-576h-384zM192 640v64h-64v64h128v-64h64v-64h-128z" />
    <glyph glyph-name="oacute" unicode="&#xf3;" 
d="M320 128v320h-128v-320h128zM64 0v576h384v-576h-384zM192 640v64h64v64h128v-64h-64v-64h-128z" />
    <glyph glyph-name="ocircumflex" unicode="&#xf4;" 
d="M320 128v320h-128v-320h128zM64 0v576h384v-576h-384zM128 640v64h64v-64h-64zM320 640v64h64v-64h-64zM192 704v64h128v-64h-128z" />
    <glyph glyph-name="otilde" unicode="&#xf5;" 
d="M320 128v320h-128v-320h128zM64 0v576h64v128h192v64h64v-128h-192v-64h256v-576h-384z" />
    <glyph glyph-name="odieresis" unicode="&#xf6;" 
d="M320 128v320h-128v-320h128zM64 0v576h384v-576h-384zM128 640v64h64v-64h-64zM320 640v64h64v-64h-64z" />
    <glyph glyph-name="divide" unicode="&#xf7;" 
d="M192 128v64h128v-64h-128zM64 256v128h384v-128h-384zM192 448v64h128v-64h-128z" />
    <glyph glyph-name="oslash" unicode="&#xf8;" 
d="M320 128v192h-64v128h-64v-128h64v-128h-64v-64h128zM64 -64v640h320v64h64v-640h-320v-64h-64z" />
    <glyph glyph-name="ugrave" unicode="&#xf9;" 
d="M64 0v576h128v-448h128v448h128v-576h-384zM192 640v64h-64v64h128v-64h64v-64h-128z" />
    <glyph glyph-name="uacute" unicode="&#xfa;" 
d="M64 0v576h128v-448h128v448h128v-576h-384zM192 640v64h64v64h128v-64h-64v-64h-128z" />
    <glyph glyph-name="ucircumflex" unicode="&#xfb;" 
d="M64 0v576h128v-448h128v448h128v-576h-384zM128 640v64h64v-64h-64zM320 640v64h64v-64h-64zM192 704v64h128v-64h-128z" />
    <glyph glyph-name="udieresis" unicode="&#xfc;" 
d="M64 0v576h128v-448h128v448h128v-576h-384zM128 640v64h64v-64h-64zM320 640v64h64v-64h-64z" />
    <glyph glyph-name="yacute" unicode="&#xfd;" 
d="M64 -128v128h256v64h-256v512h128v-384h128v384h128v-704h-384zM192 640v64h64v64h128v-64h-64v-64h-128z" />
    <glyph glyph-name="thorn" unicode="&#xfe;" horiz-adv-x="384" 
d="M256 192v192h-64v-192h64zM64 0v576h128v-64h128v-64h64v-320h-64v-64h-128v-64h-128z" />
    <glyph glyph-name="ydieresis" unicode="&#xff;" 
d="M64 -128v128h256v64h-256v512h128v-384h128v384h128v-704h-384zM128 640v64h64v-64h-64zM320 640v64h64v-64h-64z" />
    <glyph glyph-name="Ydieresis" unicode="&#x178;" 
d="M192 0v320h-64v64h-64v384h128v-320h128v320h128v-384h-64v-64h-64v-320h-128zM128 832v64h64v-64h-64zM320 832v64h64v-64h-64z" />
    <glyph glyph-name="emdash" unicode="&#x2014;" horiz-adv-x="576" 
d="M64 256v128h512v-128h-512z" />
    <glyph glyph-name="quoteleft" unicode="&#x2018;" horiz-adv-x="192" 
d="M64 512v256h128v-256h-128z" />
    <glyph glyph-name="quoteright" unicode="&#x2019;" horiz-adv-x="192" 
d="M64 512v256h128v-256h-128z" />
    <glyph glyph-name="quotedblleft" unicode="&#x201c;" horiz-adv-x="384" 
d="M64 512v256h128v-256h-128zM256 512v256h128v-256h-128z" />
    <glyph glyph-name="quotedblright" unicode="&#x201d;" horiz-adv-x="384" 
d="M64 512v256h128v-256h-128zM256 512v256h128v-256h-128z" />
    <glyph glyph-name="dagger" unicode="&#x2020;" 
d="M192 64v384h-128v128h128v192h128v-192h128v-128h-128v-384h-128z" />
    <glyph glyph-name="bullet" unicode="&#x2022;" horiz-adv-x="256" 
d="M64 320v192h192v-192h-192z" />
    <glyph glyph-name="ellipsis" unicode="&#x2026;" horiz-adv-x="576" 
d="M64 0v128h128v-128h-128zM256 0v128h128v-128h-128zM448 0v128h128v-128h-128z" />
    <glyph glyph-name="Euro" unicode="&#x20ac;" 
d="M64 64v704h384v-128h-256v-128h128v-64h-128v-64h128v-64h-128v-128h256v-128h-384z" />
    <glyph glyph-name="trademark" unicode="&#x2122;" 
d="M128 448v192h-64v64h384v-256h-64v128h-64v-128h-64v192h-64v-192h-64z" />
    <glyph glyph-name="section" unicode="&#x2260;" horiz-adv-x="384" 
d="M128 0v128h-64v128h128v64h-128v128h192v128h64v-128h64v-128h-128v-64h128v-128h-192v-128h-64z" />
    <glyph glyph-name="guillemotleft" unicode="&#x2264;" 
d="M64 0v64h384v-64h-384zM192 128v64h-64v64h-64v128h64v64h64v64h192v-128h-128v-128h128v-128h-192z" />
    <glyph glyph-name="guillemotright" unicode="&#x2265;" 
d="M64 0v64h384v-64h-384zM128 128v128h128v128h-128v128h192v-64h64v-64h64v-128h-64v-64h-64v-64h-192z" />
    <glyph glyph-name="nonmarkingreturn" horiz-adv-x="192" 
 />
    <glyph glyph-name="NULL" horiz-adv-x="-64" 
 />
  </font>
</defs>
</svg>
